<?xml version="1.0" encoding="UTF-8" standalone="no"?>
<!DOCTYPE svg PUBLIC "-//W3C//DTD SVG 20010904//EN" "http://www.w3.org/TR/2001/REC-SVG-20010904/DTD/svg10.dtd" >
<svg width="1764" height="1764" xmlns="http://www.w3.org/2000/svg" xmlns:xlink="http://www.w3.org/1999/xlink" >
	<title>Devanagari Om</title>
	<defs>
		<!-- Unicode: U+0950 (2.384) – Devanagari Om   -->
		<!-- #441 · Glyph 78                           -->
		<!-- Breiten: |< 80 >| 120 |<>| 1807           -->
		<!-- BoundingBox: 80 3 1687 1516               -->
		<rect id="OmFrame" style="fill: none; stroke: #B4B4FF; stroke-width: 1px;" x="80" y="-1518" width="1604" height="1518" />
		<path id="Om" style="fill: #FF871E; stroke: #3C3C3C;" d="
			M  1032 -1425
			L   912 -1321
			L   776 -1414
			L   904 -1518
			Z
			M  1254 -1277
			C  1167 -1178  1080 -1129   994 -1129
			C   938 -1129   879 -1148   817 -1187
			C   773 -1214   708 -1266   622 -1342
			L   617 -1358
			L   637 -1366
			C   771 -1281   791 -1239   877 -1239
			C   978 -1239  1066 -1305  1142 -1437
			C  1165 -1393  1184 -1362  1199 -1344
			L  1254 -1277
			M  1687  -699
			C  1687  -582  1669  -486  1632  -409
			C  1585  -310  1512  -261  1414  -261
			C  1331  -270  1277  -315  1250  -394
			C  1238  -429  1225  -501  1211  -609
			L  1142  -560
			C  1123  -543  1098  -534  1068  -534
			C   999  -534   918  -592   823  -708
			C   804  -671   777  -640   740  -615
			C   922  -536  1013  -424  1013  -278
			C  1013  -196   982  -129   921   -77
			C   864   -28   793    -3   709    -3
			C   604    -3   511   -34   430   -96
			C   367  -145   303  -221   240  -326
			C   203  -387   154  -485    91  -620
			L    80  -658
			L    89  -650
			C   100  -643   107  -633   112  -620
			L   240  -383
			C   325  -226   435  -148   572  -148
			C   648  -148   709  -166   754  -203
			C   803  -243   828  -300   828  -375
			C   828  -467   795  -539   729  -592
			L   644  -550
			C   593  -525   544  -508   498  -501
			L   448  -595
			L   405  -686
			C   516  -698   595  -721   644  -754
			C   709  -799   753  -875   776  -984
			L   779 -1014
			C   779 -1076   742 -1107   667 -1107
			C   595 -1098   534 -1077   485 -1046
			C   444 -1020   396  -976   343  -915
			C   323  -924   300  -945   275  -977
			L   205 -1066
			C   306 -1170   420 -1222   547 -1222
			C   647 -1222   725 -1185   780 -1111
			C   830 -1045   855  -960   855  -857
			L   849  -801
			L   841  -742
			C   841  -725   849  -711   864  -699
			C   887  -680   911  -671   934  -671
			C   998  -671  1050  -721  1090  -822
			C  1155  -984  1193 -1076  1205 -1098
			C  1255 -1188  1317 -1237  1392 -1246
			C  1457 -1246  1520 -1200  1581 -1107
			C  1652  -999  1687  -863  1687  -699
			L  1687  -699
			Z
			M  1601  -847
			C  1604 -1027  1565 -1117  1485 -1117
			C  1427 -1105  1367 -1016  1304  -851
			C  1277  -779  1263  -714  1263  -655
			C  1263  -571  1295  -515  1360  -488
			C  1445  -453  1507  -518  1547  -578
			C  1573  -617  1591  -681  1600  -770
			L  1601  -847
			Z" />
	</defs>
	<g transform="translate(0,0) scale(1.000)">
		<rect style="fill: #4B4B4B; stroke: none;" x="0" y="0" width="1764" height="1764" />
<!--		<use xlink:href="#OmFrame" transform="translate(0, 1641)" /> -->
		<use xlink:href="#Om"      transform="translate(0, 1641)" />
	</g>
</svg>
